<svg width="28" height="28" viewBox="0 0 28 28" fill="none" xmlns="http://www.w3.org/2000/svg">
<path d="M14.0002 2.33333C10.9399 2.33763 8.00497 3.54975 5.8335 5.70616V3.49999C5.8335 3.19058 5.71058 2.89383 5.49179 2.67504C5.27299 2.45624 4.97625 2.33333 4.66683 2.33333C4.35741 2.33333 4.06066 2.45624 3.84187 2.67504C3.62308 2.89383 3.50016 3.19058 3.50016 3.49999V8.16666C3.50016 8.47608 3.62308 8.77283 3.84187 8.99162C4.06066 9.21041 4.35741 9.33333 4.66683 9.33333H9.3335C9.64292 9.33333 9.93966 9.21041 10.1585 8.99162C10.3772 8.77283 10.5002 8.47608 10.5002 8.16666C10.5002 7.85724 10.3772 7.5605 10.1585 7.3417C9.93966 7.12291 9.64292 7 9.3335 7H7.8355C9.4378 5.59045 11.4748 4.77258 13.6069 4.68266C15.7391 4.59275 17.8376 5.23622 19.5529 6.50585C21.2682 7.77548 22.4966 9.59459 23.0334 11.66C23.5702 13.7255 23.383 15.9125 22.5029 17.8566C21.6229 19.8008 20.1032 21.3846 18.197 22.3442C16.2909 23.3038 14.1135 23.5812 12.0276 23.1302C9.94179 22.6792 8.07349 21.527 6.73408 19.8656C5.39468 18.2043 4.66507 16.134 4.66683 14C4.66683 13.6906 4.54391 13.3938 4.32512 13.175C4.10633 12.9562 3.80958 12.8333 3.50016 12.8333C3.19074 12.8333 2.894 12.9562 2.6752 13.175C2.45641 13.3938 2.3335 13.6906 2.3335 14C2.3335 16.3074 3.01773 18.5631 4.29968 20.4816C5.58163 22.4002 7.40372 23.8956 9.53552 24.7786C11.6673 25.6616 14.0131 25.8927 16.2762 25.4425C18.5393 24.9923 20.6181 23.8812 22.2497 22.2496C23.8814 20.618 24.9925 18.5392 25.4427 16.276C25.8928 14.0129 25.6618 11.6672 24.7788 9.53536C23.8957 7.40355 22.4004 5.58147 20.4818 4.29952C18.5632 3.01757 16.3076 2.33333 14.0002 2.33333Z" fill="white"/>
</svg>
