<svg width="28" height="28" viewBox="0 0 28 28" fill="none" xmlns="http://www.w3.org/2000/svg">
<path d="M10.1869 14.7379C9.86662 14.4176 9.3472 14.4176 9.02684 14.7379L8.67509 15.0896C8.79513 12.2561 11.1376 9.98774 14.0001 9.98774C15.4226 9.98774 16.7609 10.5424 17.7686 11.5497C18.0889 11.87 18.6084 11.8699 18.9287 11.5495C19.2489 11.2291 19.2488 10.7097 18.9285 10.3894C17.611 9.07243 15.8607 8.34717 14.0001 8.34717C10.2297 8.34717 7.14931 11.3561 7.03305 15.0987L6.67233 14.7379C6.35202 14.4176 5.8326 14.4176 5.51224 14.7379C5.19188 15.0583 5.19188 15.5777 5.51224 15.898L7.26952 17.6553C7.4297 17.8155 7.63964 17.8956 7.84953 17.8956C8.05942 17.8956 8.26942 17.8155 8.42955 17.6553L10.1868 15.898C10.5073 15.5777 10.5073 15.0583 10.1869 14.7379Z" fill="white"/>
<path d="M22.7865 5.71119H21.2365C20.8794 5.71119 20.5581 5.51267 20.399 5.19461L20.0983 4.59277C19.3593 3.11479 17.8737 2.19664 16.2212 2.19664H11.7788C10.1263 2.19664 8.64073 3.11479 7.90152 4.59332L7.60178 5.19319C7.44193 5.51273 7.1207 5.71124 6.76353 5.71124H5.21352C2.3298 5.71119 0 8.04525 0 10.9248V20.5899C0 23.474 2.33445 25.8034 5.21352 25.8034H22.7865C25.6702 25.8034 28 23.4693 28 20.5899V10.9248C28 8.0406 25.6656 5.71119 22.7865 5.71119ZM26.3594 20.5899C26.3594 22.5941 24.7276 24.1628 22.7865 24.1628H5.21352C3.27239 24.1628 1.64062 22.5941 1.64062 20.5899V10.9248C1.64062 8.92047 3.27245 7.35187 5.21352 7.35187H6.76348C7.74594 7.35187 8.6293 6.80603 9.0697 5.92578L9.36917 5.32652C9.82844 4.40793 10.7518 3.83732 11.7789 3.83732H16.2212C17.2483 3.83732 18.1716 4.40798 18.6307 5.32602L18.9311 5.92731C19.3708 6.80603 20.2541 7.35187 21.2366 7.35187H22.7865C24.7277 7.35187 26.3594 8.92052 26.3594 10.9248V20.5899H26.3594Z" fill="white"/>
<path d="M20.7302 12.9808C20.57 12.8206 20.3601 12.7405 20.1502 12.7405C19.9403 12.7405 19.7303 12.8205 19.5702 12.9808L17.8129 14.738C17.4926 15.0584 17.4926 15.5778 17.8129 15.8981C18.1332 16.2185 18.6526 16.2185 18.973 15.8981L19.3248 15.5464C19.2047 18.38 16.8623 20.6483 13.9998 20.6483C12.5773 20.6483 11.2389 20.0936 10.2313 19.0864C9.91079 18.7661 9.39142 18.7662 9.07117 19.0866C8.75092 19.407 8.75103 19.9264 9.07139 20.2467C10.3889 21.5636 12.1392 22.2889 13.9998 22.2889C17.7701 22.2889 20.8505 19.28 20.9668 15.5374L21.3275 15.8981C21.6478 16.2185 22.1672 16.2185 22.4876 15.8981C22.808 15.5778 22.808 15.0584 22.4876 14.738L20.7302 12.9808Z" fill="white"/>
</svg>
