<svg width="28" height="28" viewBox="0 0 28 28" fill="none" xmlns="http://www.w3.org/2000/svg">
<path d="M15.6861 3.24284C14.8747 2.82264 13.9448 2.95375 13.2564 3.58968L7.84152 8.58516H4.28261C3.02417 8.58516 2 9.71898 2 11.1121V16.8881C2 18.2813 3.02417 19.4151 4.28261 19.4151H7.84152L13.2564 24.4106C13.678 24.7997 14.1913 25 14.7117 25C15.0403 25 15.372 24.9203 15.6861 24.7574C16.4963 24.3365 17 23.4601 17 22.4687V5.53156C17 4.54026 16.4963 3.66376 15.6861 3.24284ZM15.0435 22.4688C15.0435 22.6691 14.9257 22.7594 14.8557 22.796C14.785 22.832 14.6467 22.8743 14.5086 22.7467L8.82174 17.5002C8.64591 17.338 8.4243 17.2492 8.19565 17.2492H4.28261C4.103 17.2492 3.95652 17.0871 3.95652 16.8882V11.1123C3.95652 10.9135 4.103 10.7513 4.28261 10.7513H8.19565C8.4243 10.7513 8.64591 10.6625 8.82174 10.5003L14.5086 5.25388C14.6468 5.12479 14.785 5.16782 14.8557 5.2045C14.9257 5.24118 15.0435 5.33142 15.0435 5.53171V22.4688Z" fill="white"/>
<path d="M26.7852 17.7296C27.1458 17.3691 27.1458 16.785 26.7852 16.4243L24.3608 14L26.785 11.5757C27.1456 11.2152 27.1454 10.6311 26.785 10.2705C26.4245 9.90984 25.8404 9.90984 25.4797 10.2705L23.0555 12.6948L20.6313 10.2705C20.2708 9.90984 19.6867 9.90997 19.3261 10.2705C18.9655 10.631 18.9655 11.2151 19.3261 11.5757L21.7503 14L19.3261 16.4243C18.9655 16.7848 18.9655 17.369 19.3261 17.7296C19.5064 17.9099 19.742 18 19.9788 18C20.2156 18 20.4512 17.9099 20.6315 17.7296L23.0557 15.3053L25.4799 17.7296C25.6602 17.9099 25.8957 18 26.1325 18C26.3693 18 26.6049 17.9099 26.7852 17.7296Z" fill="white"/>
</svg>
