<svg width="28" height="28" viewBox="0 0 28 28" fill="none" xmlns="http://www.w3.org/2000/svg">
<path d="M21.7201 1.75H6.27987C5.07883 1.75116 3.92731 2.22878 3.07805 3.07805C2.22878 3.92731 1.75116 5.07883 1.75 6.27987V21.7201C1.75116 22.9212 2.22878 24.0727 3.07805 24.922C3.92731 25.7712 5.07883 26.2488 6.27987 26.25H21.7201C21.7551 26.25 21.7875 26.2404 21.8225 26.2395C21.8398 26.2439 21.8573 26.2474 21.875 26.25C21.9316 26.2444 21.9875 26.2335 22.0421 26.2176C23.182 26.1383 24.2495 25.6303 25.0301 24.796C25.8107 23.9616 26.2466 22.8627 26.25 21.7201V6.27987C26.2488 5.07883 25.7712 3.92731 24.922 3.07805C24.0727 2.22878 22.9212 1.75116 21.7201 1.75ZM6.27987 3.5H21.7201C22.4572 3.50069 23.1638 3.7938 23.685 4.31497C24.2062 4.83615 24.4993 5.54282 24.5 6.27987V18.1877L20.5686 14.2564C20.4045 14.0923 20.182 14.0002 19.95 14.0002C19.718 14.0002 19.4955 14.0923 19.3314 14.2564L15.6625 17.9253L8.05612 10.3189C7.89204 10.1548 7.66952 10.0627 7.4375 10.0627C7.20548 10.0627 6.98296 10.1548 6.81888 10.3189L3.5 13.6378V6.27987C3.50069 5.54282 3.7938 4.83615 4.31497 4.31497C4.83615 3.7938 5.54282 3.50069 6.27987 3.5ZM3.5 21.7201V16.1122L7.4375 12.1747L19.7628 24.5H6.27987C5.54282 24.4993 4.83615 24.2062 4.31497 23.685C3.7938 23.1638 3.50069 22.4572 3.5 21.7201ZM22.19 24.4527L16.8997 19.1625L19.95 16.1122L24.5 20.6623V21.7201C24.4983 22.3747 24.2657 23.0076 23.8431 23.5075C23.4205 24.0074 22.8351 24.3421 22.19 24.4527Z" fill="white"/>
<path d="M19.6875 11.375C20.2932 11.375 20.8853 11.1954 21.3889 10.8589C21.8926 10.5224 22.2851 10.0441 22.5169 9.48447C22.7487 8.92487 22.8093 8.3091 22.6912 7.71504C22.573 7.12097 22.2813 6.57529 21.853 6.14699C21.4247 5.71869 20.879 5.42701 20.285 5.30885C19.6909 5.19068 19.0751 5.25133 18.5155 5.48312C17.9559 5.71491 17.4776 6.10744 17.1411 6.61107C16.8046 7.11469 16.625 7.7068 16.625 8.3125C16.625 9.12473 16.9477 9.90369 17.522 10.478C18.0963 11.0523 18.8753 11.375 19.6875 11.375ZM19.6875 7C19.9471 7 20.2008 7.07698 20.4167 7.2212C20.6325 7.36542 20.8008 7.5704 20.9001 7.81023C20.9994 8.05006 21.0254 8.31396 20.9748 8.56856C20.9241 8.82316 20.7991 9.05702 20.6156 9.24058C20.432 9.42414 20.1982 9.54914 19.9436 9.59978C19.689 9.65042 19.4251 9.62443 19.1852 9.52509C18.9454 9.42575 18.7404 9.25753 18.5962 9.04169C18.452 8.82585 18.375 8.57209 18.375 8.3125C18.375 7.9644 18.5133 7.63056 18.7594 7.38442C19.0056 7.13828 19.3394 7 19.6875 7Z" fill="white"/>
</svg>
